<?xml version="1.0" standalone="no"?>
<!DOCTYPE svg PUBLIC "-//W3C//DTD SVG 20010904//EN"
 "http://www.w3.org/TR/2001/REC-SVG-20010904/DTD/svg10.dtd">
<svg version="1.0" xmlns="http://www.w3.org/2000/svg"
 width="256.000000pt" height="256.000000pt" viewBox="0 0 256.000000 256.000000"
 preserveAspectRatio="xMidYMid meet">
<metadata>
Created by potrace 1.15, written by Peter Selinger 2001-2017
</metadata>
<g transform="translate(0.000000,256.000000) scale(0.100000,-0.100000)"
fill="#000000" stroke="none">
<path d="M1284 1747 c-2 -7 -3 -60 -2 -118 l3 -104 28 -3 c49 -6 57 10 57 117
0 62 -4 101 -12 109 -16 16 -67 15 -74 -1z"/>
<path d="M777 1543 c-4 -3 -7 -18 -7 -32 0 -33 124 -161 156 -161 26 0 44 18
44 45 0 31 -129 155 -161 155 -14 0 -29 -3 -32 -7z"/>
<path d="M1742 1487 c-50 -50 -62 -69 -62 -94 0 -34 24 -50 59 -38 28 9 141
131 141 152 0 26 -19 43 -50 43 -18 0 -43 -18 -88 -63z"/>
<path d="M1171 1420 c-111 -41 -203 -124 -254 -230 -24 -52 -32 -82 -35 -147
l-5 -83 47 0 46 0 0 55 c0 86 33 160 104 231 75 75 143 104 246 104 103 0 171
-29 246 -104 71 -71 104 -145 104 -231 l0 -55 46 0 47 0 -5 83 c-3 66 -11 95
-36 148 -42 87 -124 169 -211 211 -60 29 -76 33 -176 35 -91 3 -120 0 -164
-17z"/>
<path d="M567 1034 c-11 -12 -8 -59 5 -72 8 -8 47 -12 109 -12 107 0 123 8
117 57 l-3 28 -111 3 c-60 1 -113 -1 -117 -4z"/>
<path d="M1172 920 l-140 -120 -233 -2 -234 -3 0 -35 0 -35 267 -3 267 -2 111
96 111 96 85 -74 c157 -134 104 -119 405 -116 237 3 263 5 273 21 8 12 8 22 0
35 -10 15 -35 17 -241 20 l-229 2 -141 120 c-78 66 -146 120 -151 120 -6 0
-73 -54 -150 -120z"/>
<path d="M1852 1028 c-18 -18 -14 -56 7 -68 11 -5 60 -10 110 -10 68 0 93 4
105 16 19 18 21 45 4 62 -16 16 -210 16 -226 0z"/>
</g>
</svg>
