<?xml version="1.0" standalone="no"?>
<!DOCTYPE svg PUBLIC "-//W3C//DTD SVG 20010904//EN"
 "http://www.w3.org/TR/2001/REC-SVG-20010904/DTD/svg10.dtd">
<svg version="1.0" xmlns="http://www.w3.org/2000/svg"
 width="980.000000pt" height="822.000000pt" viewBox="0 0 980.000000 822.000000"
 preserveAspectRatio="xMidYMid meet">
<metadata>
Created by potrace 1.15, written by Peter Selinger 2001-2017
</metadata>
<g transform="translate(0.000000,822.000000) scale(0.100000,-0.100000)"
fill="#000000" stroke="none">
<path d="M4784 8191 c-60 -27 -114 -80 -140 -136 l-24 -50 0 -560 0 -560 24
-50 c42 -91 138 -154 235 -155 109 0 186 45 227 134 l24 51 0 580 0 580 -24
50 c-28 60 -56 87 -116 114 -58 27 -150 27 -206 2z"/>
<path d="M1563 6851 c-58 -15 -124 -61 -154 -109 -56 -88 -61 -168 -18 -255
32 -64 769 -800 833 -832 210 -105 442 120 342 330 -19 39 -111 137 -417 442
-252 251 -407 397 -429 407 -46 19 -117 27 -157 17z"/>
<path d="M8095 6854 c-83 -21 -92 -29 -489 -423 -311 -310 -403 -407 -422
-446 -63 -133 5 -292 145 -340 56 -19 151 -19 194 -1 46 20 809 790 836 843
44 89 37 172 -22 259 -50 74 -167 126 -242 108z"/>
<path d="M4800 6163 c-706 -38 -1360 -330 -1861 -832 -498 -499 -800 -1167
-826 -1826 -4 -111 -11 -162 -24 -198 -23 -59 -24 -124 -3 -177 l16 -40 259 0
259 0 0 200 c0 316 33 537 116 790 193 583 614 1063 1169 1336 474 233 1018
295 1543 178 840 -188 1505 -839 1716 -1679 49 -194 58 -276 63 -557 l5 -268
259 0 259 0 0 148 c0 496 -84 896 -270 1288 -447 945 -1352 1564 -2385 1634
-145 9 -176 10 -295 3z"/>
<path d="M152 3574 c-61 -30 -96 -69 -130 -143 -44 -95 -17 -208 67 -284 22
-19 57 -40 78 -46 52 -15 1154 -15 1206 0 48 13 112 70 140 123 16 32 21 59
21 121 1 90 -17 137 -75 193 -63 62 -64 62 -689 62 l-566 0 -52 -26z"/>
<path d="M8425 3577 c-90 -42 -165 -153 -165 -242 0 -48 25 -122 54 -160 14
-18 52 -46 83 -62 l58 -28 575 0 575 0 58 29 c69 33 110 84 127 157 31 127
-18 245 -125 302 -39 22 -47 22 -615 25 l-575 2 -50 -23z"/>
<path d="M200 2051 c-82 -25 -169 -110 -190 -186 -32 -115 27 -232 150 -296
l45 -24 1442 -5 1441 -5 886 -760 c488 -418 890 -761 895 -763 5 -2 409 340
897 760 l889 763 1450 5 c1369 5 1452 6 1490 23 53 24 103 72 126 122 22 46
25 156 8 216 -16 50 -61 105 -112 132 l-42 22 -1607 3 -1607 2 -753 -626
c-414 -345 -761 -633 -770 -641 -15 -14 -54 20 -420 364 -263 247 -512 470
-717 641 l-313 262 -1582 -1 c-869 0 -1592 -4 -1606 -8z"/>
</g>
</svg>
